<svg width="26" height="26" viewBox="0 0 26 26" fill="none" xmlns="http://www.w3.org/2000/svg">
<g clip-path="url(#clip0_190_342)">
<path d="M4.142 25.091C3.134 25.091 2.357 24.363 2.357 23.103C2.357 21.836 3.218 21.101 4.191 21.101C4.688 21.101 5.031 21.311 5.304 21.549L4.975 21.969C4.751 21.773 4.52 21.633 4.219 21.633C3.526 21.633 3.022 22.228 3.022 23.103C3.022 23.978 3.498 24.559 4.198 24.559C4.548 24.559 4.856 24.398 5.094 24.181L5.374 24.608C5.031 24.916 4.597 25.091 4.142 25.091ZM7.37162 25.091C6.44062 25.091 5.60762 24.363 5.60762 23.103C5.60762 21.836 6.44062 21.101 7.37162 21.101C8.30263 21.101 9.13562 21.836 9.13562 23.103C9.13562 24.363 8.30263 25.091 7.37162 25.091ZM7.37162 24.559C8.02962 24.559 8.47763 23.978 8.47763 23.103C8.47763 22.228 8.02962 21.633 7.37162 21.633C6.71362 21.633 6.27262 22.228 6.27262 23.103C6.27262 23.978 6.71362 24.559 7.37162 24.559ZM9.99974 26.603V21.199H10.5247L10.5807 21.633H10.6017C10.9447 21.353 11.3717 21.101 11.8127 21.101C12.7927 21.101 13.3247 21.871 13.3247 23.04C13.3247 24.342 12.5477 25.091 11.6727 25.091C11.3297 25.091 10.9657 24.93 10.6227 24.65L10.6367 25.315V26.603H9.99974ZM11.5677 24.559C12.1977 24.559 12.6597 23.992 12.6597 23.047C12.6597 22.207 12.3797 21.64 11.6587 21.64C11.3367 21.64 11.0077 21.822 10.6367 22.165V24.16C10.9797 24.454 11.3157 24.559 11.5677 24.559ZM14.2006 25V21.199H14.8376V25H14.2006ZM14.5226 20.415C14.2706 20.415 14.0956 20.247 14.0956 19.988C14.0956 19.743 14.2706 19.575 14.5226 19.575C14.7746 19.575 14.9496 19.743 14.9496 19.988C14.9496 20.247 14.7746 20.415 14.5226 20.415ZM17.5213 25.091C16.5133 25.091 15.7013 24.356 15.7013 23.103C15.7013 21.871 16.5343 21.101 17.4163 21.101C18.3823 21.101 18.9283 21.801 18.9283 22.886C18.9283 23.026 18.9143 23.159 18.9003 23.25H16.3383C16.3803 24.062 16.8773 24.58 17.5983 24.58C17.9693 24.58 18.2703 24.468 18.5503 24.279L18.7813 24.699C18.4453 24.916 18.0393 25.091 17.5213 25.091ZM16.3313 22.788H18.3683C18.3683 22.025 18.0183 21.612 17.4233 21.612C16.8843 21.612 16.4083 22.046 16.3313 22.788ZM21.0193 25.091C20.0673 25.091 19.4513 24.37 19.4513 23.103C19.4513 21.871 20.2283 21.101 21.0963 21.101C21.5443 21.101 21.8313 21.269 22.1673 21.549L22.1393 20.891V19.428H22.7693V25H22.2513L22.1953 24.552H22.1743C21.8733 24.846 21.4743 25.091 21.0193 25.091ZM21.1593 24.559C21.5093 24.559 21.8173 24.384 22.1393 24.034V22.039C21.8103 21.752 21.5233 21.64 21.2083 21.64C20.5923 21.64 20.1093 22.228 20.1093 23.096C20.1093 24.013 20.4873 24.559 21.1593 24.559Z" fill="white"/>
<path d="M10.2376 18.3374L4.1709 12.2708L5.33548 11.1062L10.2376 16.0083L20.6376 5.60828L21.8021 6.77286L10.2376 18.3374Z" fill="white"/>
</g>
<defs>
<clipPath id="clip0_190_342">
<rect width="26" height="26" fill="white"/>
</clipPath>
</defs>
</svg>
