<svg width="26" height="25" viewBox="0 0 26 25" fill="none" xmlns="http://www.w3.org/2000/svg">
<path d="M4.875 22.8906C4.44167 22.8906 4.0625 22.7343 3.7375 22.4218C3.4125 22.1093 3.25 21.7448 3.25 21.3281V5.62496H4.875V21.3281H17.7125V22.8906H4.875ZM8.125 19.7656C7.69167 19.7656 7.3125 19.6093 6.9875 19.2968C6.6625 18.9843 6.5 18.6198 6.5 18.2031V3.61975C6.5 3.20308 6.6625 2.8385 6.9875 2.526C7.3125 2.2135 7.69167 2.05725 8.125 2.05725H20.0417C20.475 2.05725 20.8542 2.2135 21.1792 2.526C21.5042 2.8385 21.6667 3.20308 21.6667 3.61975V18.2031C21.6667 18.6198 21.5042 18.9843 21.1792 19.2968C20.8542 19.6093 20.475 19.7656 20.0417 19.7656H8.125ZM8.125 18.2031H20.0417V3.61975H8.125V18.2031Z" fill="white"/>
</svg>
