<svg width="20" height="20" viewBox="0 0 20 20" fill="none" xmlns="http://www.w3.org/2000/svg">
<g clip-path="url(#clip0_286_466)">
<path d="M9.9947 19.5C7.3649 19.5 5.125 18.5732 3.275 16.7197C1.425 14.8662 0.5 12.6245 0.5 9.9947C0.5 7.3649 1.42677 5.125 3.2803 3.275C5.13383 1.425 7.3755 0.5 10.0053 0.5C12.6351 0.5 14.875 1.42677 16.725 3.2803C18.575 5.13383 19.5 7.3755 19.5 10.0053C19.5 12.6351 18.5732 14.875 16.7197 16.725C14.8662 18.575 12.6245 19.5 9.9947 19.5ZM9 12H11V4H9V12ZM10 16C10.2667 16 10.5 15.9 10.7 15.7C10.9 15.5 11 15.2667 11 15C11 14.7333 10.9 14.5 10.7 14.3C10.5 14.1 10.2667 14 10 14C9.73333 14 9.5 14.1 9.3 14.3C9.1 14.5 9 14.7333 9 15C9 15.2667 9.1 15.5 9.3 15.7C9.5 15.9 9.73333 16 10 16Z" fill="#F82626"/>
</g>
<defs>
<clipPath id="clip0_286_466">
<rect width="20" height="20" fill="white"/>
</clipPath>
</defs>
</svg>
