<svg width="120" height="20" viewBox="0 0 120 20" fill="none" xmlns="http://www.w3.org/2000/svg">
<path d="M5.1199 1.09996L7.3199 1.81996C6.7999 3.11996 6.1799 4.47996 5.4599 5.75996V19.7H3.1999V9.23996C2.6999 9.87996 2.1999 10.48 1.6799 11.02C1.4599 10.44 0.799902 9.15996 0.399902 8.57996C2.2599 6.77996 4.0799 3.93996 5.1199 1.09996ZM9.9799 4.01996V6.69996H15.8399V4.01996H9.9799ZM19.1999 12.76H15.1999C16.3799 14.5 18.0999 16.14 19.7799 17.12C19.2399 17.58 18.4799 18.42 18.0999 19.02C16.6399 17.98 15.1799 16.36 14.0399 14.58V19.74H11.6399V14.68C10.4199 16.44 8.8999 17.96 7.3199 18.98C6.9599 18.4 6.2199 17.54 5.6799 17.08C7.4799 16.14 9.2599 14.52 10.4999 12.76H6.3999V10.6H11.6399V8.79996H7.7199V1.91996H18.2199V8.79996H14.0399V10.6H19.1999V12.76Z" fill="#22A9BC"/>
<path d="M34.3399 10.64V9.35996H27.1199V10.64H34.3399ZM27.1199 13.92H34.3399V12.62H27.1199V13.92ZM38.8999 5.69996H28.1999C27.9599 6.23996 27.6999 6.75996 27.3999 7.27996H36.6599V17.16C36.6599 18.34 36.4399 18.98 35.6199 19.34C34.8399 19.72 33.6999 19.74 32.0799 19.74C31.9799 19.08 31.6599 18.08 31.3599 17.44C32.3799 17.5 33.5399 17.5 33.8799 17.5C34.2199 17.48 34.3399 17.38 34.3399 17.1V15.9H27.1199V19.72H24.7599V11.02C23.9599 11.9 23.0999 12.7 22.1199 13.36C21.7799 12.84 21.0199 11.98 20.5599 11.54C22.6799 10.12 24.3399 8.01996 25.5399 5.69996H21.1599V3.45996H26.5399C26.8599 2.63996 27.1199 1.83996 27.3199 1.03996L29.7799 1.59996C29.5799 2.21996 29.3799 2.83996 29.1399 3.45996H38.8999V5.69996Z" fill="#22A9BC"/>
<path d="M48.6599 16.8H55.4399V12.9H48.6599V16.8ZM52.1799 5.09996H47.1999C46.8799 5.43996 46.5599 5.77996 46.2199 6.11996C47.2799 6.89996 48.5599 7.89996 49.3999 8.75996C50.5199 7.65996 51.4599 6.41996 52.1799 5.09996ZM57.9199 10.74V19.74H55.4399V18.94H48.6599V19.72H46.2799V14.04C44.8799 14.84 43.3799 15.48 41.8599 16C41.5799 15.34 40.9799 14.36 40.4799 13.88C42.9799 13.16 45.3999 11.96 47.4799 10.42C46.6799 9.53996 45.4799 8.49996 44.4199 7.65996C43.7399 8.19996 42.9999 8.69996 42.1999 9.17996C41.8399 8.59996 41.0599 7.71996 40.5199 7.31996C43.7999 5.57996 45.9999 3.13996 47.1599 0.959961L49.8399 1.45996C49.5399 1.97996 49.1999 2.49996 48.8399 3.01996H53.3799L53.7799 2.89996L55.4199 3.75996C54.3999 6.49996 52.7799 8.83996 50.7799 10.74H57.9199Z" fill="#22A9BC"/>
<path d="M67.2399 1.21996V3.21996H71.2399V5.33996H67.2399V6.77996H71.0399V10.6C71.0399 11.46 70.9399 11.96 70.3799 12.26C69.8399 12.58 69.1399 12.6 68.1999 12.6C68.1199 12.04 67.8799 11.28 67.6399 10.78C68.1399 10.8 68.6199 10.8 68.7599 10.78C68.9399 10.78 68.9999 10.74 68.9999 10.56V8.83996H67.2399V12.72C68.3599 13.34 70.6399 14.74 71.2199 15.14L69.9999 17.2C69.3599 16.62 68.2599 15.74 67.2399 14.96V19.68H65.0599V14.86C64.0399 16.42 62.8399 17.86 61.5799 18.8C61.3599 18.14 60.8399 17.18 60.4599 16.62C62.2799 15.4 64.0799 13.28 65.0599 11.32V8.83996H63.4799V12.42H61.4399V6.77996H65.0599V5.33996H60.9399V3.21996H65.0599V1.21996H67.2399ZM74.3599 3.17996V14.44H72.1199V3.17996H74.3599ZM76.3199 1.45996H78.6399V16.9C78.6399 18.22 78.3799 18.88 77.5999 19.24C76.8199 19.64 75.6199 19.72 73.9199 19.72C73.8199 19.04 73.4799 17.98 73.1399 17.3C74.3199 17.34 75.4599 17.34 75.8399 17.34C76.1799 17.34 76.3199 17.22 76.3199 16.9V1.45996Z" fill="#22A9BC"/>
<path d="M80.8199 8.91996H99.2199V11.5H80.8199V8.91996Z" fill="#22A9BC"/>
<path d="M103.84 6.89996V7.61996H105.26V6.89996H103.84ZM105.26 3.03996H103.84V3.67996H105.26V3.03996ZM107.66 5.63996V4.93996H103.84V5.63996H107.66ZM110.34 7.61996V8.95996H101.72V1.71996H110.02V3.03996H107.16V3.67996H109.74V5.59996C110.76 4.45996 111.58 2.75996 112.02 1.05996L114.14 1.51996C114 2.01996 113.84 2.51996 113.64 2.99996H119.06V4.83996H112.82C112.4 5.63996 111.94 6.37996 111.46 6.95996C111.08 6.61996 110.26 6.07996 109.74 5.79996V6.89996H107.16V7.61996H110.34ZM118.58 8.41996H111.94V6.61996H118.58V8.41996ZM105.92 14.38V15.04H113.98V14.38H105.92ZM105.92 12.54V13.18H113.98V12.54H105.92ZM105.92 10.72V11.36H113.98V10.72H105.92ZM114.12 17.7H116.5C117.12 17.7 117.26 17.48 117.34 16.08C117.8 16.38 118.72 16.7 119.3 16.82C119.08 18.98 118.5 19.54 116.72 19.54H113.8C111.42 19.54 110.84 18.98 110.84 17.18V16.28H108.66C108.08 18.3 106.56 19.3 101.7 19.76C101.56 19.24 101.08 18.4 100.68 17.96C104.56 17.74 105.78 17.3 106.28 16.28H103.68V9.45996H116.34V16.28H113.16V17.16C113.16 17.64 113.3 17.7 114.12 17.7Z" fill="#22A9BC"/>
</svg>
