<svg width="22" height="22" viewBox="0 0 22 22" fill="none" xmlns="http://www.w3.org/2000/svg">
<path d="M4.125 19.25C3.75833 19.25 3.4375 19.1125 3.1625 18.8375C2.8875 18.5625 2.75 18.2417 2.75 17.875V4.125C2.75 3.75833 2.8875 3.4375 3.1625 3.1625C3.4375 2.8875 3.75833 2.75 4.125 2.75H10.5188V4.125H4.125V17.875H17.875V11.4812H19.25V17.875C19.25 18.2417 19.1125 18.5625 18.8375 18.8375C18.5625 19.1125 18.2417 19.25 17.875 19.25H4.125ZM8.75417 14.2312L7.79167 13.2458L16.9125 4.125H11.8938V2.75H19.25V10.1063H17.875V5.11042L8.75417 14.2312Z" fill="#22A9BC"/>
</svg>
