<svg width="77" height="20" viewBox="0 0 77 20" fill="none" xmlns="http://www.w3.org/2000/svg">
<path d="M0.52 3.82C1.34 3.84 2.1 3.86 2.64 3.86H13.64C14.14 3.86 14.9 3.86 15.62 3.82C15.58 4.42 15.58 5.16 15.58 5.76V15.56C15.58 16.34 15.62 18.26 15.62 18.34H12.86C12.86 18.3 12.88 17.84 12.88 17.26H3.24C3.26 17.82 3.26 18.28 3.26 18.34H0.5C0.5 18.24 0.56 16.5 0.56 15.54V5.76C0.56 5.2 0.56 4.38 0.52 3.82ZM3.24 6.4V14.7H12.9V6.4H3.24ZM33.58 1.62C34.08 2.34 34.8 3.62 35.16 4.36L33.68 4.98L35.38 6.02C35.16 6.4 34.88 6.96 34.72 7.46C34.18 9.24 33.04 11.9 31.22 14.12C29.32 16.46 26.92 18.28 23.16 19.78L20.8 17.66C24.88 16.44 27.1 14.7 28.86 12.7C30.22 11.16 31.38 8.74 31.7 7.26H26.08C24.74 9 23 10.76 21.02 12.1L18.78 10.42C22.28 8.3 24.04 5.7 25.02 3.98C25.32 3.5 25.74 2.58 25.92 1.9L28.86 2.86C28.38 3.56 27.86 4.46 27.64 4.9C27.62 4.94 27.6 4.96 27.58 5H31.58C32.2 5 32.88 4.9 33.32 4.76L33.46 4.84C33.06 4.04 32.5 2.98 32 2.26L33.58 1.62ZM35.94 0.72C36.46 1.46 37.2 2.74 37.56 3.44L35.98 4.12C35.56 3.28 34.92 2.12 34.36 1.36L35.94 0.72ZM39.24 10.22C42.82 9.3 45.76 8 47.98 6.64C50.04 5.36 52.32 3.36 53.62 1.78L55.78 3.84C54.26 5.34 52.34 6.9 50.4 8.18V16.26C50.4 17.14 50.44 18.38 50.58 18.88H47.42C47.5 18.4 47.56 17.14 47.56 16.26V9.86C45.5 10.94 42.96 12.02 40.5 12.74L39.24 10.22ZM62.82 2.8C64.22 3.74 66.82 5.82 67.98 7.04L65.94 9.12C64.9 8 62.4 5.82 60.94 4.8L62.82 2.8ZM60.32 16.12C63.44 15.68 66.04 14.66 67.98 13.5C71.4 11.48 74 8.42 75.26 5.72L76.82 8.54C75.3 11.24 72.64 14 69.42 15.94C67.4 17.16 64.82 18.28 62 18.76L60.32 16.12Z" fill="#22A9BC"/>
</svg>
