<svg width="40" height="40" viewBox="0 0 40 40" fill="none" xmlns="http://www.w3.org/2000/svg">
<path d="M9.16667 36.6667C8.47917 36.6667 7.89063 36.4219 7.40104 35.9323C6.91146 35.4427 6.66667 34.8542 6.66667 34.1667V16.0834C6.66667 15.3959 6.91146 14.8073 7.40104 14.3177C7.89063 13.8281 8.47917 13.5834 9.16667 13.5834H12.0833V9.58335C12.0833 7.39308 12.8556 5.52606 14.4003 3.98231C15.9449 2.43856 17.8129 1.66669 20.0044 1.66669C22.1959 1.66669 24.0625 2.43856 25.6042 3.98231C27.1458 5.52606 27.9167 7.39308 27.9167 9.58335V13.5834H30.8333C31.5208 13.5834 32.1094 13.8281 32.599 14.3177C33.0885 14.8073 33.3333 15.3959 33.3333 16.0834V34.1667C33.3333 34.8542 33.0885 35.4427 32.599 35.9323C32.1094 36.4219 31.5208 36.6667 30.8333 36.6667H9.16667ZM9.16667 34.1667H30.8333V16.0834H9.16667V34.1667ZM20.007 28.3334C20.8912 28.3334 21.6458 28.0274 22.2708 27.4154C22.8958 26.8034 23.2083 26.0677 23.2083 25.2084C23.2083 24.375 22.8935 23.6181 22.2638 22.9375C21.6342 22.257 20.8772 21.9167 19.993 21.9167C19.1088 21.9167 18.3542 22.257 17.7292 22.9375C17.1042 23.6181 16.7917 24.382 16.7917 25.2292C16.7917 26.0764 17.1065 26.8056 17.7362 27.4167C18.3658 28.0278 19.1228 28.3334 20.007 28.3334ZM14.5833 13.5834H25.4167V9.58335C25.4167 8.07871 24.8905 6.79978 23.8383 5.74656C22.7859 4.69331 21.5082 4.16669 20.0049 4.16669C18.5016 4.16669 17.2222 4.69331 16.1667 5.74656C15.1111 6.79978 14.5833 8.07871 14.5833 9.58335V13.5834Z" fill="black"/>
</svg>
