<svg width="238" height="20" viewBox="0 0 238 20" fill="none" xmlns="http://www.w3.org/2000/svg">
<path d="M15.86 3.3C15.6 3.76 15.22 4.64 15.02 5.1C14.42 6.68 13.52 8.7 12.34 10.54C14.1 11.98 15.78 13.52 17.14 14.96L15.08 17.24C13.68 15.6 12.24 14.2 10.64 12.82C8.88 14.94 6.58 17.16 3.2 19L0.96 16.98C4.22 15.4 6.58 13.46 8.56 11.08C7.12 9.94 5.2 8.52 3.16 7.28L4.86 5.24C6.46 6.22 8.56 7.66 10.18 8.86C11.2 7.26 11.88 5.68 12.4 4.1C12.58 3.58 12.8 2.78 12.88 2.26L15.86 3.3ZM20.84 8.74C21.56 8.8 23.02 8.86 24.06 8.86H34.8C35.74 8.86 36.62 8.78 37.14 8.74V11.88C36.66 11.86 35.64 11.78 34.8 11.78H24.06C22.92 11.78 21.58 11.82 20.84 11.88V8.74ZM49.06 17.56C49.14 17.18 49.22 16.62 49.22 16.08V4.42C49.22 3.52 49.08 2.76 49.06 2.7H52.04C52.02 2.76 51.9 3.54 51.9 4.44V14.9C53.52 14.2 55.5 12.62 56.84 10.68L58.38 12.88C56.72 15.04 53.84 17.2 51.6 18.34C51.16 18.58 50.92 18.78 50.74 18.94L49.06 17.56ZM39.8 17.26C41.56 16.02 42.64 14.18 43.2 12.48C43.76 10.76 43.78 6.98 43.78 4.56C43.78 3.76 43.72 3.22 43.6 2.72H46.54C46.52 2.82 46.4 3.7 46.4 4.54C46.4 6.9 46.34 11.12 45.8 13.14C45.2 15.4 43.94 17.36 42.24 18.88L39.8 17.26ZM78.1 4.46C77.88 4.72 77.5 5.2 77.32 5.5C76.38 7.06 74.48 9.58 72.52 10.98L70.44 9.32C72.04 8.34 73.6 6.58 74.12 5.6H63.7C62.86 5.6 62.2 5.66 61.26 5.74V2.96C62.02 3.08 62.86 3.16 63.7 3.16H74.48C75.04 3.16 76.14 3.1 76.52 2.98L78.1 4.46ZM69.94 7.16C69.94 12.12 69.84 16.2 64.4 19.12L62.06 17.22C62.7 17 63.42 16.66 64.16 16.12C66.7 14.36 67.18 12.24 67.18 8.96C67.18 8.34 67.14 7.8 67.04 7.16H69.94ZM92.64 3.12C93.2 3.96 94 5.24 94.46 6.14L92.72 6.92C92.14 5.66 91.7 4.86 90.96 3.82L92.64 3.12ZM95.26 2.02C95.84 2.82 96.68 4.08 97.14 4.98L95.46 5.8C94.82 4.54 94.34 3.8 93.6 2.8L95.26 2.02ZM84.66 16.38V4.88C84.66 4.16 84.6 3.18 84.46 2.46H87.58C87.5 3.16 87.4 4.04 87.4 4.88V7.8C90.06 8.6 93.92 10.02 95.76 10.92L94.64 13.7C92.56 12.6 89.56 11.44 87.4 10.72V16.38C87.4 16.94 87.5 18.34 87.6 19.16H84.46C84.58 18.38 84.66 17.16 84.66 16.38ZM102.9 17.2C103.14 16.7 103.16 16.36 103.16 15.9V5.06C103.16 4.3 103.06 3.36 102.94 2.78H106.08C105.96 3.56 105.88 4.28 105.88 5.06V15.46C109.14 14.52 113.6 11.96 116.16 8.84L117.58 11.1C114.84 14.38 110.7 16.76 105.98 18.3C105.7 18.4 105.26 18.54 104.8 18.84L102.9 17.2ZM135.68 4.44C135.52 4.66 135.16 5.28 134.98 5.68C134.3 7.24 133.18 9.38 131.84 11.18C133.82 12.9 136.24 15.46 137.42 16.9L135.14 18.88C133.84 17.08 131.98 15.04 130.1 13.22C127.98 15.46 125.32 17.54 122.58 18.84L120.52 16.68C123.74 15.48 126.84 13.04 128.72 10.94C130.04 9.44 131.26 7.46 131.7 6.04H124.92C124.08 6.04 122.98 6.16 122.56 6.18V3.34C123.1 3.42 124.32 3.48 124.92 3.48H131.98C132.84 3.48 133.64 3.36 134.04 3.22L135.68 4.44ZM140.38 4.28C141.18 4.26 141.96 4.22 142.34 4.18C144.02 4.04 147.32 3.74 150.98 3.44C153.04 3.26 155.22 3.14 156.64 3.08L156.66 5.64C155.58 5.66 153.86 5.66 152.8 5.92C150.38 6.56 148.56 9.14 148.56 11.52C148.56 14.82 151.64 16 155.04 16.18L154.1 18.92C149.9 18.64 145.94 16.4 145.94 12.06C145.94 9.18 147.56 6.9 148.92 5.88C147.04 6.08 142.96 6.52 140.64 7.02L140.38 4.28ZM153.8 7.6C154.3 8.32 155.02 9.54 155.4 10.32L153.88 11C153.38 9.9 152.96 9.12 152.32 8.22L153.8 7.6ZM156.04 6.68C156.54 7.38 157.3 8.56 157.72 9.34L156.22 10.06C155.68 8.98 155.22 8.24 154.58 7.36L156.04 6.68ZM161.52 3.82C162.34 3.84 163.1 3.86 163.64 3.86H174.64C175.14 3.86 175.9 3.86 176.62 3.82C176.58 4.42 176.58 5.16 176.58 5.76V15.56C176.58 16.34 176.62 18.26 176.62 18.34H173.86C173.86 18.3 173.88 17.84 173.88 17.26H164.24C164.26 17.82 164.26 18.28 164.26 18.34H161.5C161.5 18.24 161.56 16.5 161.56 15.54V5.76C161.56 5.2 161.56 4.38 161.52 3.82ZM164.24 6.4V14.7H173.9V6.4H164.24ZM194.58 1.62C195.08 2.34 195.8 3.62 196.16 4.36L194.68 4.98L196.38 6.02C196.16 6.4 195.88 6.96 195.72 7.46C195.18 9.24 194.04 11.9 192.22 14.12C190.32 16.46 187.92 18.28 184.16 19.78L181.8 17.66C185.88 16.44 188.1 14.7 189.86 12.7C191.22 11.16 192.38 8.74 192.7 7.26H187.08C185.74 9 184 10.76 182.02 12.1L179.78 10.42C183.28 8.3 185.04 5.7 186.02 3.98C186.32 3.5 186.74 2.58 186.92 1.9L189.86 2.86C189.38 3.56 188.86 4.46 188.64 4.9C188.62 4.94 188.6 4.96 188.58 5H192.58C193.2 5 193.88 4.9 194.32 4.76L194.46 4.84C194.06 4.04 193.5 2.98 193 2.26L194.58 1.62ZM196.94 0.72C197.46 1.46 198.2 2.74 198.56 3.44L196.98 4.12C196.56 3.28 195.92 2.12 195.36 1.36L196.94 0.72ZM200.24 10.22C203.82 9.3 206.76 8 208.98 6.64C211.04 5.36 213.32 3.36 214.62 1.78L216.78 3.84C215.26 5.34 213.34 6.9 211.4 8.18V16.26C211.4 17.14 211.44 18.38 211.58 18.88H208.42C208.5 18.4 208.56 17.14 208.56 16.26V9.86C206.5 10.94 203.96 12.02 201.5 12.74L200.24 10.22ZM223.82 2.8C225.22 3.74 227.82 5.82 228.98 7.04L226.94 9.12C225.9 8 223.4 5.82 221.94 4.8L223.82 2.8ZM221.32 16.12C224.44 15.68 227.04 14.66 228.98 13.5C232.4 11.48 235 8.42 236.26 5.72L237.82 8.54C236.3 11.24 233.64 14 230.42 15.94C228.4 17.16 225.82 18.28 223 18.76L221.32 16.12Z" fill="#22A9BC"/>
</svg>
