<svg width="192" height="57" viewBox="0 0 192 57" fill="none" xmlns="http://www.w3.org/2000/svg">
<path d="M20.6365 0.727295V24H15.3637L6.95463 11.7727H6.81827V24H0.500089V0.727295H5.86373L14.1365 12.9091H14.3183V0.727295H20.6365Z" fill="#4C4948"/>
<path d="M23.6251 24V0.727295H39.9887V5.8182H29.9433V9.8182H38.9887V14.9091H29.9433V24H23.6251Z" fill="#4C4948"/>
<path d="M41.6762 5.8182V0.727295H61.9035V5.8182H54.9035V24H48.6762V5.8182H41.6762Z" fill="#4C4948"/>
<path d="M22.2274 41.4546H15.8183C15.7728 40.9243 15.6516 40.4432 15.4546 40.0114C15.2652 39.5796 15.0001 39.2084 14.6592 38.8978C14.3258 38.5796 13.9205 38.3371 13.4433 38.1705C12.966 37.9962 12.4243 37.9091 11.8183 37.9091C10.7577 37.9091 9.85994 38.1667 9.12509 38.6818C8.39782 39.197 7.84479 39.9356 7.466 40.8978C7.09479 41.8599 6.90918 43.0152 6.90918 44.3637C6.90918 45.7879 7.09857 46.9811 7.47736 47.9432C7.86373 48.8978 8.42054 49.6174 9.14782 50.1023C9.87509 50.5796 10.7501 50.8182 11.7728 50.8182C12.3561 50.8182 12.8789 50.7462 13.341 50.6023C13.8031 50.4508 14.2046 50.2349 14.5455 49.9546C14.8865 49.6743 15.163 49.3371 15.3751 48.9432C15.5948 48.5417 15.7425 48.0909 15.8183 47.5909L22.2274 47.6364C22.1516 48.6212 21.8751 49.625 21.3978 50.6478C20.9205 51.6629 20.2425 52.6023 19.3637 53.4659C18.4925 54.322 17.413 55.0114 16.1251 55.5341C14.8372 56.0568 13.341 56.3182 11.6365 56.3182C9.50009 56.3182 7.58342 55.8599 5.88645 54.9432C4.19706 54.0265 2.85994 52.6781 1.87509 50.8978C0.897816 49.1174 0.40918 46.9394 0.40918 44.3637C0.40918 41.7727 0.90918 39.5909 1.90918 37.8182C2.90918 36.0379 4.25766 34.6932 5.95463 33.7841C7.6516 32.8674 9.54554 32.4091 11.6365 32.4091C13.1062 32.4091 14.4584 32.6099 15.6933 33.0114C16.9281 33.4129 18.0115 34 18.9433 34.7728C19.8751 35.5379 20.6251 36.4811 21.1933 37.6023C21.7615 38.7235 22.1062 40.0076 22.2274 41.4546Z" fill="#4C4948"/>
<path d="M33.5938 56.3182C31.6999 56.3182 30.0787 55.9432 28.7302 55.1932C27.3817 54.4356 26.3476 53.3826 25.6279 52.0341C24.9082 50.6781 24.5484 49.1061 24.5484 47.3182C24.5484 45.5303 24.9082 43.9621 25.6279 42.6137C26.3476 41.2576 27.3817 40.2046 28.7302 39.4546C30.0787 38.697 31.6999 38.3182 33.5938 38.3182C35.4878 38.3182 37.109 38.697 38.4575 39.4546C39.806 40.2046 40.8401 41.2576 41.5597 42.6137C42.2794 43.9621 42.6393 45.5303 42.6393 47.3182C42.6393 49.1061 42.2794 50.6781 41.5597 52.0341C40.8401 53.3826 39.806 54.4356 38.4575 55.1932C37.109 55.9432 35.4878 56.3182 33.5938 56.3182ZM33.6393 51.6818C34.1696 51.6818 34.6279 51.5038 35.0143 51.1478C35.4007 50.7917 35.6999 50.2841 35.912 49.625C36.1241 48.9659 36.2302 48.1818 36.2302 47.2728C36.2302 46.3561 36.1241 45.572 35.912 44.9205C35.6999 44.2614 35.4007 43.7538 35.0143 43.3978C34.6279 43.0417 34.1696 42.8637 33.6393 42.8637C33.0787 42.8637 32.5976 43.0417 32.1961 43.3978C31.7946 43.7538 31.4878 44.2614 31.2757 44.9205C31.0635 45.572 30.9575 46.3561 30.9575 47.2728C30.9575 48.1818 31.0635 48.9659 31.2757 49.625C31.4878 50.2841 31.7946 50.7917 32.1961 51.1478C32.5976 51.5038 33.0787 51.6818 33.6393 51.6818Z" fill="#4C4948"/>
<path d="M51.4575 32.7273V56H45.1847V32.7273H51.4575Z" fill="#4C4948"/>
<path d="M60.9262 32.7273V56H54.6535V32.7273H60.9262Z" fill="#4C4948"/>
<path d="M72.4859 56.3182C70.6222 56.3182 69.0162 55.9621 67.6677 55.25C66.3268 54.5303 65.2927 53.5 64.5654 52.1591C63.8457 50.8106 63.4859 49.197 63.4859 47.3182C63.4859 45.5152 63.8495 43.9394 64.5768 42.5909C65.3041 41.2424 66.3306 40.1932 67.6563 39.4432C68.9821 38.6932 70.5465 38.3182 72.3495 38.3182C73.6677 38.3182 74.8609 38.5227 75.9291 38.9318C76.9973 39.3409 77.9101 39.9356 78.6677 40.7159C79.4253 41.4887 80.0086 42.4281 80.4177 43.5341C80.8268 44.6402 81.0313 45.8864 81.0313 47.2728V48.7273H65.4404V45.2728H75.2586C75.251 44.7728 75.1222 44.3334 74.8722 43.9546C74.6298 43.5682 74.3003 43.269 73.8836 43.0568C73.4745 42.8371 73.0086 42.7273 72.4859 42.7273C71.9783 42.7273 71.5124 42.8371 71.0882 43.0568C70.6639 43.269 70.323 43.5644 70.0654 43.9432C69.8154 44.322 69.6829 44.7652 69.6677 45.2728V49C69.6677 49.5606 69.7851 50.0606 70.02 50.5C70.2548 50.9394 70.5919 51.2841 71.0313 51.5341C71.4707 51.7841 72.001 51.9091 72.6222 51.9091C73.0541 51.9091 73.448 51.8485 73.8041 51.7273C74.1677 51.6061 74.4783 51.4318 74.7359 51.2046C74.9935 50.9697 75.1829 50.6894 75.3041 50.3637H81.0313C80.8344 51.5758 80.3685 52.6288 79.6336 53.5228C78.8988 54.4091 77.9253 55.0985 76.7132 55.5909C75.5086 56.0758 74.0995 56.3182 72.4859 56.3182Z" fill="#4C4948"/>
<path d="M92.0001 56.3182C90.1062 56.3182 88.4849 55.9432 87.1365 55.1932C85.788 54.4356 84.7539 53.3826 84.0342 52.0341C83.3145 50.6781 82.9546 49.1061 82.9546 47.3182C82.9546 45.5303 83.3145 43.9621 84.0342 42.6137C84.7539 41.2576 85.788 40.2046 87.1365 39.4546C88.4849 38.697 90.1062 38.3182 92.0001 38.3182C93.7122 38.3182 95.1933 38.6288 96.4433 39.25C97.7008 39.8637 98.6743 40.7349 99.3637 41.8637C100.053 42.9849 100.402 44.3031 100.409 45.8182H94.591C94.5077 44.9015 94.2425 44.2046 93.7955 43.7273C93.3562 43.2424 92.788 43 92.091 43C91.5455 43 91.0683 43.1591 90.6592 43.4773C90.2501 43.7879 89.9319 44.2614 89.7046 44.8978C89.4774 45.5265 89.3637 46.3182 89.3637 47.2728C89.3637 48.2273 89.4774 49.0228 89.7046 49.6591C89.9319 50.2879 90.2501 50.7614 90.6592 51.0796C91.0683 51.3902 91.5455 51.5455 92.091 51.5455C92.5531 51.5455 92.9622 51.4394 93.3183 51.2273C93.6743 51.0076 93.9622 50.6894 94.1819 50.2728C94.4092 49.8485 94.5455 49.3334 94.591 48.7273H100.409C100.386 50.2652 100.034 51.6061 99.3524 52.75C98.6705 53.8864 97.7046 54.7652 96.4546 55.3864C95.2122 56.0076 93.7274 56.3182 92.0001 56.3182Z" fill="#4C4948"/>
<path d="M113.406 38.5455V43.0909H101.906V38.5455H113.406ZM104.134 34.3637H110.406V50.3864C110.406 50.6288 110.448 50.8334 110.531 51C110.615 51.1591 110.743 51.2803 110.918 51.3637C111.092 51.4394 111.315 51.4773 111.588 51.4773C111.778 51.4773 111.997 51.4546 112.247 51.4091C112.505 51.3637 112.694 51.3258 112.815 51.2955L113.725 55.7046C113.444 55.7879 113.043 55.8902 112.52 56.0114C112.005 56.1326 111.391 56.2121 110.679 56.25C109.24 56.3258 108.031 56.1781 107.054 55.8068C106.077 55.4281 105.342 54.8334 104.85 54.0228C104.357 53.2121 104.118 52.197 104.134 50.9773V34.3637Z" fill="#4C4948"/>
<path d="M115.966 56V38.5455H122.239V56H115.966ZM119.102 36.7273C118.254 36.7273 117.527 36.447 116.921 35.8864C116.314 35.3258 116.011 34.6515 116.011 33.8637C116.011 33.0758 116.314 32.4015 116.921 31.8409C117.527 31.2803 118.254 31 119.102 31C119.958 31 120.686 31.2803 121.284 31.8409C121.89 32.4015 122.193 33.0758 122.193 33.8637C122.193 34.6515 121.89 35.3258 121.284 35.8864C120.686 36.447 119.958 36.7273 119.102 36.7273Z" fill="#4C4948"/>
<path d="M133.844 56.3182C131.95 56.3182 130.329 55.9432 128.98 55.1932C127.632 54.4356 126.598 53.3826 125.878 52.0341C125.158 50.6781 124.798 49.1061 124.798 47.3182C124.798 45.5303 125.158 43.9621 125.878 42.6137C126.598 41.2576 127.632 40.2046 128.98 39.4546C130.329 38.697 131.95 38.3182 133.844 38.3182C135.738 38.3182 137.359 38.697 138.707 39.4546C140.056 40.2046 141.09 41.2576 141.81 42.6137C142.529 43.9621 142.889 45.5303 142.889 47.3182C142.889 49.1061 142.529 50.6781 141.81 52.0341C141.09 53.3826 140.056 54.4356 138.707 55.1932C137.359 55.9432 135.738 56.3182 133.844 56.3182ZM133.889 51.6818C134.42 51.6818 134.878 51.5038 135.264 51.1478C135.651 50.7917 135.95 50.2841 136.162 49.625C136.374 48.9659 136.48 48.1818 136.48 47.2728C136.48 46.3561 136.374 45.572 136.162 44.9205C135.95 44.2614 135.651 43.7538 135.264 43.3978C134.878 43.0417 134.42 42.8637 133.889 42.8637C133.329 42.8637 132.848 43.0417 132.446 43.3978C132.045 43.7538 131.738 44.2614 131.526 44.9205C131.314 45.572 131.207 46.3561 131.207 47.2728C131.207 48.1818 131.314 48.9659 131.526 49.625C131.738 50.2841 132.045 50.7917 132.446 51.1478C132.848 51.5038 133.329 51.6818 133.889 51.6818Z" fill="#4C4948"/>
<path d="M151.707 46.1818V56H145.435V38.5455H151.389V41.8637H151.571C151.95 40.7576 152.617 39.8902 153.571 39.2614C154.533 38.6326 155.654 38.3182 156.935 38.3182C158.17 38.3182 159.242 38.6023 160.151 39.1705C161.067 39.7311 161.776 40.5038 162.276 41.4887C162.783 42.4735 163.033 43.5985 163.026 44.8637V56H156.753V46.1818C156.761 45.3182 156.541 44.6402 156.094 44.1478C155.654 43.6553 155.041 43.4091 154.253 43.4091C153.738 43.4091 153.287 43.5228 152.901 43.75C152.522 43.9697 152.23 44.2879 152.026 44.7046C151.821 45.1137 151.715 45.6061 151.707 46.1818Z" fill="#4C4948"/>
<path d="M182.077 44.2273H176.304C176.274 43.8712 176.149 43.5644 175.929 43.3068C175.709 43.0493 175.425 42.8523 175.077 42.7159C174.736 42.572 174.357 42.5 173.94 42.5C173.403 42.5 172.94 42.5985 172.554 42.7955C172.168 42.9924 171.978 43.2728 171.986 43.6364C171.978 43.894 172.088 44.1326 172.315 44.3523C172.55 44.572 173.001 44.7424 173.668 44.8637L177.213 45.5C179.001 45.8258 180.331 46.375 181.202 47.1478C182.081 47.9129 182.524 48.9394 182.531 50.2273C182.524 51.4697 182.153 52.5493 181.418 53.4659C180.69 54.375 179.694 55.0796 178.429 55.5796C177.171 56.072 175.736 56.3182 174.122 56.3182C171.456 56.3182 169.368 55.7728 167.861 54.6818C166.361 53.5909 165.524 52.1515 165.35 50.3637H171.577C171.66 50.9167 171.933 51.3447 172.395 51.6478C172.865 51.9432 173.456 52.0909 174.168 52.0909C174.743 52.0909 175.217 51.9924 175.588 51.7955C175.967 51.5985 176.16 51.3182 176.168 50.9546C176.16 50.6212 175.993 50.3561 175.668 50.1591C175.35 49.9621 174.85 49.8031 174.168 49.6818L171.077 49.1364C169.296 48.8258 167.963 48.2349 167.077 47.3637C166.19 46.4924 165.751 45.3712 165.759 44C165.751 42.7879 166.069 41.7614 166.713 40.9205C167.365 40.072 168.293 39.4281 169.497 38.9887C170.709 38.5417 172.145 38.3182 173.804 38.3182C176.327 38.3182 178.315 38.8409 179.77 39.8864C181.232 40.9318 182.001 42.3788 182.077 44.2273Z" fill="#4C4948"/>
<path d="M188.344 56.3637C187.465 56.3637 186.711 56.0568 186.082 55.4432C185.461 54.822 185.154 54.0682 185.162 53.1818C185.154 52.3182 185.461 51.5796 186.082 50.9659C186.711 50.3523 187.465 50.0455 188.344 50.0455C189.177 50.0455 189.912 50.3523 190.548 50.9659C191.192 51.5796 191.518 52.3182 191.526 53.1818C191.518 53.7727 191.363 54.3106 191.06 54.7955C190.764 55.2728 190.378 55.6553 189.901 55.9432C189.423 56.2235 188.904 56.3637 188.344 56.3637Z" fill="#4C4948"/>
</svg>
