<svg width="68" height="68" viewBox="0 0 68 68" fill="none" xmlns="http://www.w3.org/2000/svg">
<circle cx="34" cy="34" r="34" fill="#E14882"/>
<path d="M46.75 39H21.25C20.6313 39 20.1016 38.7797 19.6609 38.3391C19.2203 37.8984 19 37.3687 19 36.75V31.0125C19.925 30.8125 20.6938 30.3438 21.3063 29.6063C21.9188 28.8688 22.225 28 22.225 27C22.225 26 21.9188 25.125 21.3063 24.375C20.6938 23.625 19.925 23.1625 19 22.9875V17.25C19 16.6313 19.2203 16.1016 19.6609 15.6609C20.1016 15.2203 20.6313 15 21.25 15H46.75C47.3687 15 47.8984 15.2203 48.3391 15.6609C48.7797 16.1016 49 16.6313 49 17.25V36.75C49 37.3687 48.7797 37.8984 48.3391 38.3391C47.8984 38.7797 47.3687 39 46.75 39Z" fill="white"/>
<path d="M15.672 45.102C16.519 45.124 18.213 45.113 19.423 44.937C20.534 44.772 21.645 44.53 22.195 44.266L23.108 45.476C22.734 45.575 22.437 45.652 22.261 45.696C21.579 45.872 20.699 46.015 19.852 46.136C18.598 46.312 16.981 46.356 16.024 46.378L15.672 45.102ZM16.145 52.692C18.092 51.801 18.961 50.349 18.961 48.292C18.961 48.292 18.961 47.577 18.961 46.015L20.402 45.85C20.402 46.796 20.402 48.259 20.402 48.259C20.402 50.481 19.676 52.362 17.553 53.638L16.145 52.692ZM14.847 47.742C15.155 47.764 15.518 47.797 15.87 47.797C16.563 47.797 22.448 47.797 23.185 47.797C23.416 47.797 23.933 47.764 24.175 47.742V49.161C23.878 49.139 23.515 49.117 23.207 49.117C22.514 49.117 16.53 49.117 15.881 49.117C15.54 49.117 15.133 49.139 14.847 49.161V47.742ZM29.928 44.387C29.807 44.673 29.664 45.047 29.565 45.289C29.378 45.839 29.037 46.653 28.751 47.214C28.311 48.083 27.563 49.139 26.837 49.788L25.451 48.952C26.243 48.369 26.947 47.379 27.365 46.686C27.662 46.18 27.871 45.597 28.003 45.179C28.124 44.816 28.212 44.398 28.234 44.057L29.928 44.387ZM28.19 46.092C29.07 46.092 33.25 46.092 34.009 46.092C34.284 46.092 34.79 46.07 35.153 46.015V47.511C34.735 47.478 34.262 47.478 34.009 47.478C33.239 47.478 29.07 47.478 28.08 47.478L28.19 46.092ZM32.491 46.884C32.414 50.129 31.259 52.274 29.136 53.605L27.651 52.615C28.047 52.45 28.432 52.23 28.685 52.01C29.939 51.053 30.918 49.535 30.962 46.884H32.491ZM41.544 46.477C41.753 46.939 42.292 48.38 42.446 48.886L41.137 49.337C40.994 48.809 40.51 47.478 40.246 46.906L41.544 46.477ZM45.603 47.269C45.482 47.632 45.416 47.863 45.35 48.083C45.064 49.194 44.591 50.338 43.843 51.295C42.82 52.626 41.456 53.539 40.169 54.034L39.014 52.857C40.213 52.527 41.753 51.691 42.655 50.547C43.403 49.623 43.942 48.16 44.063 46.774L45.603 47.269ZM38.992 47.049C39.267 47.61 39.806 48.952 40.015 49.568L38.673 50.063C38.497 49.48 37.936 48.006 37.672 47.533L38.992 47.049ZM50.443 51.955C50.443 51.108 50.443 46.554 50.443 45.63C50.443 45.234 50.41 44.695 50.333 44.299H52.049C52.005 44.695 51.95 45.168 51.95 45.63C51.95 46.84 51.961 51.141 51.961 51.955C51.961 52.263 52.005 53.033 52.06 53.484H50.333C50.41 53.055 50.443 52.384 50.443 51.955ZM51.631 47.148C53.094 47.555 55.47 48.424 56.548 48.952L55.932 50.481C54.678 49.832 52.83 49.128 51.631 48.732V47.148Z" fill="white"/>
</svg>
