<svg width="24" height="19" viewBox="0 0 24 19" fill="none" xmlns="http://www.w3.org/2000/svg">
<path d="M22.2 19H1.8C1.305 19 0.88125 18.8256 0.52875 18.4768C0.17625 18.1279 0 17.7086 0 17.2188V12.6766C0.74 12.5182 1.355 12.1471 1.845 11.5633C2.335 10.9794 2.58 10.2917 2.58 9.5C2.58 8.70833 2.335 8.01562 1.845 7.42188C1.355 6.82812 0.74 6.46198 0 6.32344V1.78125C0 1.29141 0.17625 0.87207 0.52875 0.523242C0.88125 0.174414 1.305 0 1.8 0H22.2C22.695 0 23.1188 0.174414 23.4713 0.523242C23.8238 0.87207 24 1.29141 24 1.78125V17.2188C24 17.7086 23.8238 18.1279 23.4713 18.4768C23.1188 18.8256 22.695 19 22.2 19Z" fill="#22A9BC"/>
</svg>
